<svg width="36" height="34" viewBox="0 0 36 34" fill="none" xmlns="http://www.w3.org/2000/svg">
<path fill-rule="evenodd" clip-rule="evenodd" d="M22.4519 4.00936C22.9107 3.70197 23.5318 3.82476 23.8392 4.2836L29.9614 13.4225C30.2688 13.8813 30.146 14.5025 29.6872 14.8098L22.4037 19.6891C22.239 19.7994 22.0453 19.8583 21.8471 19.8583H18.992C18.7052 19.8583 18.4323 19.7352 18.2424 19.5202C18.0526 19.3052 17.9642 19.0191 17.9997 18.7345C18.0354 18.4479 18.0539 18.1555 18.0539 17.8583C18.0539 15.0444 16.3935 12.6162 13.9947 11.5039C13.6669 11.3519 13.4466 11.0349 13.4185 10.6746C13.3903 10.3144 13.5587 9.96697 13.8589 9.76586L22.4519 4.00936ZM16.295 10.5412C18.5701 12.1736 20.0539 14.8419 20.0539 17.8583L21.5431 17.8583L27.7432 13.7048L22.7342 6.22753L16.295 10.5412Z" fill="#777777"/>
<path d="M20.0539 17.8583C20.0539 14.8419 18.5701 12.1736 16.295 10.5412L22.7342 6.22753L27.7432 13.7048L21.5431 17.8583L20.0539 17.8583Z" fill="#777777"/>
<path d="M19.0526 18.0043C19.0535 17.9557 19.0539 17.9071 19.0539 17.8583C19.0539 17.2222 18.9797 16.6036 18.8395 16.0104C19.0193 15.9716 19.195 15.8987 19.3572 15.7901C20.0455 15.329 20.2296 14.3973 19.7686 13.709C19.3075 13.0208 18.3758 12.8366 17.6875 13.2977C17.6738 13.3069 17.6603 13.3162 17.647 13.3258C17.266 12.7726 16.8172 12.2698 16.3126 11.8293C16.3961 11.7616 16.4833 11.6971 16.5744 11.6361C18.1803 10.5602 20.3543 10.99 21.4302 12.5959C22.506 14.2019 22.0763 16.3759 20.4703 17.4517C20.0291 17.7473 19.545 17.9292 19.0526 18.0043Z" fill="white"/>
<path fill-rule="evenodd" clip-rule="evenodd" d="M17.9997 18.7345C18.0622 18.234 18.4876 17.8583 18.9921 17.8583H27.054C27.6062 17.8583 28.054 18.306 28.054 18.8583V29.8583C28.054 30.4106 27.6062 30.8583 27.054 30.8583H9.05396C8.50167 30.8583 8.05396 30.4106 8.05396 29.8583V25.6062C8.05396 25.2971 8.19695 25.0053 8.44128 24.8159C8.68561 24.6265 9.00382 24.5607 9.30321 24.6378C9.86171 24.7816 10.4481 24.8583 11.054 24.8583C14.6229 24.8583 17.5693 22.1865 17.9997 18.7345ZM19.8307 19.8583C18.9209 23.8666 15.3375 26.8583 11.054 26.8583C10.7162 26.8583 10.3825 26.8396 10.054 26.8033V28.8583H26.054V19.8583H19.8307Z" fill="#777777"/>
<path d="M11.054 26.8583C15.3375 26.8583 18.9209 23.8666 19.8307 19.8583H26.054V28.8583H10.054V26.8033C10.3825 26.8396 10.7162 26.8583 11.054 26.8583Z" fill="#777777"/>
<path fill-rule="evenodd" clip-rule="evenodd" d="M15.0784 24.7738C15.2839 26.511 16.7616 27.8583 18.554 27.8583C20.487 27.8583 22.054 26.2913 22.054 24.3583C22.054 22.4253 20.487 20.8583 18.554 20.8583C18.5266 20.8583 18.4993 20.8586 18.4721 20.8592C17.8039 22.5094 16.601 23.8858 15.0784 24.7738ZM18.554 22.8583C17.7255 22.8583 17.054 23.5298 17.054 24.3583C17.054 25.1867 17.7255 25.8583 18.554 25.8583C19.3824 25.8583 20.054 25.1867 20.054 24.3583C20.054 23.5298 19.3824 22.8583 18.554 22.8583Z" fill="white"/>
<path fill-rule="evenodd" clip-rule="evenodd" d="M12.2134 11.1012C7.93993 11.1012 4.47558 14.3113 4.47558 18.2712C4.47558 22.2311 7.93993 25.4413 12.2134 25.4413C16.4869 25.4413 19.9513 22.2311 19.9513 18.2712C19.9513 14.3113 16.4869 11.1012 12.2134 11.1012ZM2.26477 18.2712C2.26477 13.1799 6.71893 9.05261 12.2134 9.05261C17.7079 9.05261 22.1621 13.1799 22.1621 18.2712C22.1621 23.3625 17.7079 27.4899 12.2134 27.4899C6.71893 27.4899 2.26477 23.3625 2.26477 18.2712Z" fill="#777777"/>
<path fill-rule="evenodd" clip-rule="evenodd" d="M12.2134 13.1498C12.8239 13.1498 13.3188 13.6084 13.3188 14.1741V17.847L16.3113 20.6198C16.743 21.0198 16.743 21.6684 16.3113 22.0684C15.8796 22.4684 15.1797 22.4684 14.748 22.0684L11.4318 18.9955C11.2245 18.8034 11.108 18.5429 11.108 18.2712V14.1741C11.108 13.6084 11.6029 13.1498 12.2134 13.1498Z" fill="#777777"/>
</svg>
