<svg width="32" height="26" viewBox="0 0 32 26" fill="none" xmlns="http://www.w3.org/2000/svg">
<path fill-rule="evenodd" clip-rule="evenodd" d="M9.31897 1.78546C9.31897 1.21976 9.81388 0.761169 10.4244 0.761169H21.4784C22.0889 0.761169 22.5838 1.21976 22.5838 1.78546V5.88263C22.5838 6.44833 22.0889 6.90692 21.4784 6.90692H10.4244C9.81388 6.90692 9.31897 6.44833 9.31897 5.88263V1.78546ZM11.5298 2.80975V4.85834H20.373V2.80975H11.5298Z" fill="#777777"/>
<path fill-rule="evenodd" clip-rule="evenodd" d="M0.475708 5.88263C0.475708 5.31693 0.970615 4.85834 1.58111 4.85834H30.3217C30.9322 4.85834 31.4271 5.31693 31.4271 5.88263V24.3199C31.4271 24.8856 30.9322 25.3442 30.3217 25.3442H1.58111C0.970615 25.3442 0.475708 24.8856 0.475708 24.3199V5.88263ZM2.68652 6.90692V23.2956H29.2162V6.90692H2.68652Z" fill="#777777"/>
<path d="M2.68652 23.2956V6.90692H29.2162V23.2956H2.68652Z" fill="#777777"/>
<path d="M18.1837 15.3021C18.3034 15.8568 18.8857 16.2166 19.4844 16.1057L29.2162 14.3021V12.213L19.0508 14.0969C18.4522 14.2078 18.0639 14.7474 18.1837 15.3021Z" fill="white"/>
<path d="M12.852 14.0969L2.68652 12.213V14.3021L12.4184 16.1057C13.017 16.2166 13.5994 15.8568 13.7191 15.3021C13.8388 14.7474 13.4506 14.2078 12.852 14.0969Z" fill="white"/>
<path fill-rule="evenodd" clip-rule="evenodd" d="M12.6351 13.0527C12.6351 12.487 13.13 12.0284 13.7405 12.0284H18.1622C18.7727 12.0284 19.2676 12.487 19.2676 13.0527V17.1498C19.2676 17.7155 18.7727 18.1741 18.1622 18.1741H13.7405C13.13 18.1741 12.6351 17.7155 12.6351 17.1498V13.0527ZM14.8459 14.077V16.1255H17.0568V14.077H14.8459Z" fill="white"/>
</svg>
